<svg width="420" height="420" viewBox="0 0 420 420" xmlns="http://www.w3.org/2000/svg">
  <defs>
    <linearGradient id="grad2" x1="1" y1="0" x2="0" y2="1">
      <stop offset="0" stop-color="#f59e0b"/>
      <stop offset="1" stop-color="#ec4899"/>
    </linearGradient>
  </defs>
  <rect width="420" height="420" rx="28" fill="url(#grad2)" opacity="0.15"/>
  <rect x="20" y="20" width="380" height="380" rx="24" fill="#fff" stroke="url(#grad2)" stroke-width="6"/>
  <rect x="48" y="48" width="92" height="92" rx="10" fill="#111827"/>
  <rect x="64" y="64" width="60" height="60" rx="6" fill="#fff"/>
  <rect x="80" y="80" width="28" height="28" rx="4" fill="#111827"/>
  <rect x="280" y="48" width="92" height="92" rx="10" fill="#111827"/>
  <rect x="296" y="64" width="60" height="60" rx="6" fill="#fff"/>
  <rect x="312" y="80" width="28" height="28" rx="4" fill="#111827"/>
  <rect x="48" y="280" width="92" height="92" rx="10" fill="#111827"/>
  <rect x="64" y="296" width="60" height="60" rx="6" fill="#fff"/>
  <rect x="80" y="312" width="28" height="28" rx="4" fill="#111827"/>
  <rect x="172" y="60" width="24" height="24" fill="#111827"/>
  <rect x="200" y="84" width="32" height="32" fill="#111827"/>
  <rect x="240" y="120" width="28" height="28" fill="#111827"/>
  <rect x="188" y="132" width="40" height="40" fill="#111827"/>
  <rect x="156" y="172" width="32" height="32" fill="#111827"/>
  <rect x="212" y="188" width="36" height="36" fill="#111827"/>
  <rect x="264" y="172" width="32" height="32" fill="#111827"/>
  <rect x="304" y="188" width="28" height="28" fill="#111827"/>
  <rect x="120" y="212" width="28" height="28" fill="#111827"/>
  <rect x="160" y="232" width="32" height="32" fill="#111827"/>
  <rect x="208" y="244" width="40" height="40" fill="#111827"/>
  <rect x="260" y="240" width="36" height="36" fill="#111827"/>
  <rect x="308" y="240" width="24" height="24" fill="#111827"/>
  <rect x="336" y="268" width="20" height="20" fill="#111827"/>
  <rect x="132" y="272" width="28" height="28" fill="#111827"/>
  <rect x="176" y="296" width="40" height="40" fill="#111827"/>
  <rect x="232" y="280" width="28" height="28" fill="#111827"/>
  <rect x="268" y="304" width="32" height="32" fill="#111827"/>
  <rect x="312" y="312" width="28" height="28" fill="#111827"/>
  <rect x="184" y="340" width="32" height="32" fill="#111827"/>
  <rect x="224" y="336" width="24" height="24" fill="#111827"/>
  <rect x="260" y="344" width="20" height="20" fill="#111827"/>
  <rect x="292" y="348" width="24" height="24" fill="#111827"/>
  <text x="210" y="374" text-anchor="middle" font-size="18" fill="#111827" font-family="Arial, sans-serif" font-weight="bold">
    QR Chung vui cùng cô dâu
  </text>
</svg>
