<svg width="420" height="420" viewBox="0 0 420 420" xmlns="http://www.w3.org/2000/svg">
  <defs>
    <linearGradient id="grad" x1="0" y1="0" x2="1" y2="1">
      <stop offset="0" stop-color="#ec4899"/>
      <stop offset="1" stop-color="#f59e0b"/>
    </linearGradient>
  </defs>
  <rect width="420" height="420" rx="28" fill="url(#grad)" opacity="0.15"/>
  <rect x="20" y="20" width="380" height="380" rx="24" fill="#fff" stroke="url(#grad)" stroke-width="6"/>
  <rect x="44" y="44" width="96" height="96" rx="10" fill="#0f172a"/>
  <rect x="60" y="60" width="64" height="64" rx="6" fill="#fff"/>
  <rect x="76" y="76" width="32" height="32" rx="4" fill="#0f172a"/>
  <rect x="280" y="44" width="96" height="96" rx="10" fill="#0f172a"/>
  <rect x="296" y="60" width="64" height="64" rx="6" fill="#fff"/>
  <rect x="312" y="76" width="32" height="32" rx="4" fill="#0f172a"/>
  <rect x="44" y="280" width="96" height="96" rx="10" fill="#0f172a"/>
  <rect x="60" y="296" width="64" height="64" rx="6" fill="#fff"/>
  <rect x="76" y="312" width="32" height="32" rx="4" fill="#0f172a"/>
  <rect x="200" y="44" width="48" height="48" fill="#0f172a"/>
  <rect x="232" y="92" width="32" height="32" fill="#0f172a"/>
  <rect x="180" y="92" width="32" height="32" fill="#0f172a"/>
  <rect x="168" y="132" width="48" height="48" fill="#0f172a"/>
  <rect x="228" y="140" width="40" height="40" fill="#0f172a"/>
  <rect x="276" y="156" width="36" height="36" fill="#0f172a"/>
  <rect x="92" y="200" width="40" height="40" fill="#0f172a"/>
  <rect x="132" y="200" width="24" height="24" fill="#0f172a"/>
  <rect x="76" y="172" width="24" height="24" fill="#0f172a"/>
  <rect x="44" y="208" width="24" height="24" fill="#0f172a"/>
  <rect x="180" y="204" width="36" height="36" fill="#0f172a"/>
  <rect x="220" y="232" width="36" height="36" fill="#0f172a"/>
  <rect x="260" y="220" width="24" height="24" fill="#0f172a"/>
  <rect x="292" y="200" width="20" height="20" fill="#0f172a"/>
  <rect x="324" y="216" width="32" height="32" fill="#0f172a"/>
  <rect x="180" y="276" width="32" height="32" fill="#0f172a"/>
  <rect x="228" y="292" width="28" height="28" fill="#0f172a"/>
  <rect x="264" y="264" width="36" height="36" fill="#0f172a"/>
  <rect x="304" y="284" width="24" height="24" fill="#0f172a"/>
  <rect x="340" y="296" width="24" height="24" fill="#0f172a"/>
  <rect x="156" y="320" width="24" height="24" fill="#0f172a"/>
  <rect x="212" y="332" width="32" height="32" fill="#0f172a"/>
  <rect x="248" y="336" width="24" height="24" fill="#0f172a"/>
  <rect x="284" y="332" width="20" height="20" fill="#0f172a"/>
  <rect x="316" y="344" width="28" height="28" fill="#0f172a"/>
  <text x="210" y="374" text-anchor="middle" font-size="18" fill="#0f172a" font-family="Arial, sans-serif" font-weight="bold">
    QR Chung vui cùng chú rể
  </text>
</svg>
